<?xml version="1.0" encoding="UTF-8" standalone="no"?>
<svg
   xmlns:dc="http://purl.org/dc/elements/1.1/"
   xmlns:cc="http://creativecommons.org/ns#"
   xmlns:rdf="http://www.w3.org/1999/02/22-rdf-syntax-ns#"
   xmlns:svg="http://www.w3.org/2000/svg"
   xmlns="http://www.w3.org/2000/svg"
   xmlns:sodipodi="http://sodipodi.sourceforge.net/DTD/sodipodi-0.dtd"
   xmlns:inkscape="http://www.inkscape.org/namespaces/inkscape"
   version="1.1"
   x="0px"
   y="0px"
   width="100px"
   height="100px"
   viewBox="0 0 100 100"
   enable-background="new 0 0 100 100"
   xml:space="preserve"
   id="svg2"
   inkscape:version="0.48.4 r9939"
   sodipodi:docname="add_file.svg"><metadata
   id="metadata16"><rdf:RDF><cc:Work
       rdf:about=""><dc:format>image/svg+xml</dc:format><dc:type
         rdf:resource="http://purl.org/dc/dcmitype/StillImage" /><dc:title></dc:title></cc:Work></rdf:RDF></metadata><defs
   id="defs14">
	

		
		
	</defs><sodipodi:namedview
   pagecolor="#ffffff"
   bordercolor="#666666"
   borderopacity="1"
   objecttolerance="10"
   gridtolerance="10"
   guidetolerance="10"
   inkscape:pageopacity="0"
   inkscape:pageshadow="2"
   inkscape:window-width="1920"
   inkscape:window-height="1017"
   id="namedview12"
   showgrid="false"
   inkscape:zoom="2.36"
   inkscape:cx="-26.90678"
   inkscape:cy="50"
   inkscape:window-x="-9"
   inkscape:window-y="-9"
   inkscape:window-maximized="1"
   inkscape:current-layer="svg2" />
<g
   id="Captions">
</g>
<polygon
   points="37.711,4.705 37.711,26.99 15.428,26.99 "
   id="polygon8"
   style="fill:#3192cb;fill-opacity:1"
   inkscape:export-filename="D:\github\mariamole\src\resources\toolbar\add_file.png"
   inkscape:export-xdpi="21.610157"
   inkscape:export-ydpi="21.610157" /><path
   d="m 15.635,99.953 c -2.708,0 -4.91,-2.199 -4.91,-4.908 v -58.02 h 32.118 c 2.709,0 4.907,-2.198 4.907,-4.907 V 0 H 84.09 C 86.803,0 89,2.199 89,4.911 v 90.134 c 0,2.709 -2.197,4.908 -4.91,4.908 H 15.635 z M 64.061,64.98 V 52.9 c 0,-2.771 -2.244,-5.016 -5.014,-5.016 -2.773,0 -5.02,2.245 -5.02,5.016 V 64.98 H 41.949 c -2.771,0 -5.017,2.245 -5.017,5.02 0,2.77 2.247,5.016 5.017,5.016 h 12.078 v 12.078 c 0,2.771 2.246,5.018 5.02,5.018 2.77,0 5.014,-2.247 5.014,-5.018 V 75.016 h 12.082 c 2.77,0 5.018,-2.246 5.018,-5.016 0,-2.774 -2.248,-5.02 -5.018,-5.02 H 64.061 z"
   id="path10"
   inkscape:connector-curvature="0"
   style="fill:#3192cb;fill-opacity:1"
   inkscape:export-filename="D:\github\mariamole\src\resources\toolbar\add_file.png"
   inkscape:export-xdpi="21.610157"
   inkscape:export-ydpi="21.610157" />
</svg>