<?xml version="1.0" encoding="UTF-8" standalone="no"?>
<svg
   xmlns:dc="http://purl.org/dc/elements/1.1/"
   xmlns:cc="http://creativecommons.org/ns#"
   xmlns:rdf="http://www.w3.org/1999/02/22-rdf-syntax-ns#"
   xmlns:svg="http://www.w3.org/2000/svg"
   xmlns="http://www.w3.org/2000/svg"
   xmlns:sodipodi="http://sodipodi.sourceforge.net/DTD/sodipodi-0.dtd"
   xmlns:inkscape="http://www.inkscape.org/namespaces/inkscape"
   version="1.1"
   id="Layer_1"
   x="0px"
   y="0px"
   width="100px"
   height="100px"
   viewBox="0 0 100 100"
   enable-background="new 0 0 100 100"
   xml:space="preserve"
   inkscape:version="0.48.4 r9939"
   sodipodi:docname="icon_16210.svg"><metadata
   id="metadata110"><rdf:RDF><cc:Work
       rdf:about=""><dc:format>image/svg+xml</dc:format><dc:type
         rdf:resource="http://purl.org/dc/dcmitype/StillImage" /><dc:title></dc:title></cc:Work></rdf:RDF></metadata><defs
   id="defs108" /><sodipodi:namedview
   pagecolor="#ffffff"
   bordercolor="#666666"
   borderopacity="1"
   objecttolerance="10"
   gridtolerance="10"
   guidetolerance="10"
   inkscape:pageopacity="0"
   inkscape:pageshadow="2"
   inkscape:window-width="1920"
   inkscape:window-height="1017"
   id="namedview106"
   showgrid="false"
   inkscape:zoom="2.36"
   inkscape:cx="-26.90678"
   inkscape:cy="50"
   inkscape:window-x="-9"
   inkscape:window-y="-9"
   inkscape:window-maximized="1"
   inkscape:current-layer="Layer_1" />
<g
   id="Captions">
	<rect
   x="-192"
   width="185"
   height="99"
   id="rect4" />
	<rect
   y="-36"
   width="100"
   height="30"
   id="rect6" />
	<text
   transform="matrix(1 0 0 1 66 -19.5)"
   fill="#000000"
   font-family="'Helvetica'"
   font-size="2.4"
   id="text8">http://thenounproject.com</text>

	<text
   transform="matrix(1 0 0 1 7.166 -24.5)"
   fill="#000000"
   font-family="'Helvetica-Bold'"
   font-size="6.1578"
   id="text10">The Noun Project</text>

	<text
   transform="matrix(1 0 0 1 8.2861 -19.7002)"
   fill="#000000"
   font-family="'Helvetica-Bold'"
   font-size="4"
   id="text12">Icon Template</text>

	<text
   transform="matrix(1 0 0 1 -178.5 10.5)"
   fill="#000000"
   font-family="'Helvetica-Bold'"
   font-size="6.1578"
   id="text14">Reminders</text>

	<line
   fill="#000000"
   stroke="#FFFFFF"
   stroke-miterlimit="10"
   x1="8"
   y1="-14.5"
   x2="18"
   y2="-14.5"
   id="line16" />
	<line
   fill="#000000"
   stroke="#FFFFFF"
   stroke-miterlimit="10"
   x1="-179"
   y1="16.5"
   x2="-162"
   y2="16.5"
   id="line18" />
	<g
   id="g20">
		<g
   id="g22">
			<g
   id="g24">
				<rect
   x="-170.802"
   y="31.318"
   fill="#000000"
   width="8.721"
   height="8.642"
   id="rect26" />
				<path
   fill="#000000"
   d="M-164.455,42.312h4.747v-4.703h-4.747V42.312z M-159.266,42.749h-5.63V37.17h5.63V42.749      L-159.266,42.749z M-166.221,44.062h8.279v-8.203h-8.279V44.062L-166.221,44.062z M-157.5,44.5h-9.163v-9.079h9.163V44.5      L-157.5,44.5z"
   id="path28" />
				<polygon
   fill="#000000"
   points="-166.149,44.133 -166.292,43.991 -158.013,35.787 -157.871,35.929     "
   id="polygon30" />
			</g>
		</g>
	</g>
	<rect
   x="-179"
   y="58"
   fill="none"
   width="35"
   height="32.5"
   id="rect32" />
	<text
   transform="matrix(1 0 0 1 -179 60.1572)"
   fill="#000000"
   font-family="'Helvetica-Bold'"
   font-size="3"
   id="text34">Strokes</text>

	<text
   transform="matrix(1 0 0 1 -179 65.1572)"
   fill="#000000"
   font-family="'Helvetica'"
   font-size="2.4"
   id="text36">Try to keep strokes at 4px</text>

	<text
   transform="matrix(1 0 0 1 -179 70.1572)"
   fill="#000000"
   font-family="'Helvetica'"
   font-size="2.4"
   id="text38">Minimum stroke weight is 2px</text>

	<text
   transform="matrix(1 0 0 1 -179 74.6572)"
   fill="#000000"
   font-family="'Helvetica'"
   font-size="2.4"
   id="text40">For thicker strokes use even </text>

	<text
   transform="matrix(1 0 0 1 -179 77.6572)"
   fill="#000000"
   font-family="'Helvetica'"
   font-size="2.4"
   id="text42">numbers: 6px, 8px etc.</text>

	<text
   transform="matrix(1 0 0 1 -179 82.1572)"
   fill="#000000"
   font-family="'Helvetica-Bold'"
   font-size="2.4"
   id="text44">Remember to expand strokes </text>

	<text
   transform="matrix(1 0 0 1 -179 85.1572)"
   fill="#000000"
   font-family="'Helvetica-Bold'"
   font-size="2.4"
   id="text46">before saving as an SVG </text>

	<rect
   x="-136.5"
   y="58"
   fill="none"
   width="35"
   height="32.5"
   id="rect48" />
	<text
   transform="matrix(1 0 0 1 -136.5 60.1572)"
   fill="#000000"
   font-family="'Helvetica-Bold'"
   font-size="3"
   id="text50">Size</text>

	<text
   transform="matrix(1 0 0 1 -136.5 65.1572)"
   fill="#000000"
   font-family="'Helvetica'"
   font-size="2.4"
   id="text52">Cannot be wider or taller than </text>

	<text
   transform="matrix(1 0 0 1 -136.5 68.6572)"
   fill="#000000"
   font-family="'Helvetica'"
   font-size="2.4"
   id="text54">100px (artboard size)</text>

	<text
   transform="matrix(1 0 0 1 -136.5 73.6572)"
   fill="#000000"
   font-family="'Helvetica'"
   font-size="2.4"
   id="text56">Scale your icon to fill as much of </text>

	<text
   transform="matrix(1 0 0 1 -136.5 76.6572)"
   fill="#000000"
   font-family="'Helvetica'"
   font-size="2.4"
   id="text58">the artboard as possible</text>

	<rect
   x="-94"
   y="58"
   fill="none"
   width="35"
   height="32.5"
   id="rect60" />
	<text
   transform="matrix(1 0 0 1 -94 60.1572)"
   fill="#000000"
   font-family="'Helvetica-Bold'"
   font-size="3"
   id="text62">Ungroup</text>

	<text
   transform="matrix(1 0 0 1 -94 65.1572)"
   fill="#000000"
   font-family="'Helvetica'"
   font-size="2.4"
   id="text64">If your design has more than one </text>

	<text
   transform="matrix(1 0 0 1 -94 68.1572)"
   fill="#000000"
   font-family="'Helvetica'"
   font-size="2.4"
   id="text66">shape, make sure to ungroup</text>

	<rect
   x="-50"
   y="58"
   fill="none"
   width="35"
   height="32.5"
   id="rect68" />
	<text
   transform="matrix(1 0 0 1 -50 60.1572)"
   fill="#000000"
   font-family="'Helvetica-Bold'"
   font-size="3"
   id="text70">Save as</text>

	<text
   transform="matrix(1 0 0 1 -50 65.1572)"
   fill="#000000"
   font-family="'Helvetica'"
   font-size="2.4"
   id="text72">Save as .SVG and make sure </text>

	<text
   transform="matrix(1 0 0 1 -50 68.1572)"
   fill="#000000"
   font-family="'Helvetica'"
   font-size="2.4"
   id="text74">“Use Artboards” is checked</text>

	<text
   transform="matrix(1.0074 0 0 1 -125.542 30.5938)"
   fill="#000000"
   font-family="'Helvetica'"
   font-size="2.5731"
   id="text76">100px</text>

	<text
   transform="matrix(1.0074 0 0 1 -41 39)"
   fill="#000000"
   font-family="'Helvetica-Bold'"
   font-size="5.1462"
   id="text78">.SVG</text>

	<rect
   x="-126.514"
   y="34.815"
   fill="#000000"
   width="10.261"
   height="10.185"
   id="rect80" />
	<rect
   x="-126.477"
   y="31.766"
   fill="#000000"
   width="0.522"
   height="2.337"
   id="rect82" />
	<rect
   x="-116.812"
   y="31.766"
   fill="#000000"
   width="0.523"
   height="2.337"
   id="rect84" />
	<rect
   x="-127"
   y="32.337"
   fill="#000000"
   width="11.233"
   height="0.572"
   id="rect86" />
	<g
   id="g88">
		<rect
   x="-83.805"
   y="33.844"
   fill="#000000"
   width="10.305"
   height="10.156"
   id="rect90" />
		<rect
   x="-76.809"
   y="28.707"
   fill="#000000"
   width="3.308"
   height="3.261"
   id="rect92" />
	</g>
	<rect
   x="-178.5"
   y="22.5"
   fill="#000000"
   stroke="#FFFFFF"
   stroke-miterlimit="10"
   width="30"
   height="30"
   id="rect94" />
	<rect
   x="-136.5"
   y="22.5"
   fill="#000000"
   stroke="#FFFFFF"
   stroke-miterlimit="10"
   width="30"
   height="30"
   id="rect96" />
	<rect
   x="-93.5"
   y="22.5"
   fill="#000000"
   stroke="#FFFFFF"
   stroke-miterlimit="10"
   width="30"
   height="30"
   id="rect98" />
	<rect
   x="-49.5"
   y="22.5"
   fill="#000000"
   stroke="#FFFFFF"
   stroke-miterlimit="10"
   width="30"
   height="30"
   id="rect100" />
</g>
<path
   d="M49.892,64.297h-0.003c-0.659,0-1.286-0.293-1.714-0.794l-16.11-18.996c-0.565-0.668-0.694-1.605-0.325-2.402  c0.369-0.794,1.166-1.304,2.042-1.304h6.938V26.58c0-1.242,1.008-2.25,2.25-2.25h13.957c1.242,0,2.25,1.008,2.25,2.25v14.221h6.938  c0.879,0,1.676,0.51,2.042,1.307c0.369,0.8,0.24,1.737-0.331,2.405L51.603,63.509C51.175,64.01,50.551,64.297,49.892,64.297z   M38.639,45.301l11.259,13.274l11.335-13.274h-4.307c-1.242,0-2.25-1.008-2.25-2.25V28.83h-9.457v14.221  c0,1.242-1.008,2.25-2.25,2.25H38.639z"
   id="path102"
   style="fill:#3192cb;fill-opacity:1"
   inkscape:export-filename="D:\github\mariamole\src\resources\toolbar\upload.png"
   inkscape:export-xdpi="33.450001"
   inkscape:export-ydpi="33.450001" />
<path
   d="M75.764,75.67h-51.53c-3.595,0-6.519-2.924-6.519-6.519V58.856c0-3.595,2.924-6.519,6.519-6.519h9.548  c1.242,0,2.25,1.008,2.25,2.25s-1.008,2.25-2.25,2.25h-9.548c-1.113,0-2.019,0.905-2.019,2.019v10.295  c0,1.113,0.905,2.019,2.019,2.019h51.53c1.113,0,2.021-0.905,2.021-2.019V58.856c0-1.113-0.908-2.019-2.021-2.019h-9.527  c-1.242,0-2.25-1.008-2.25-2.25s1.008-2.25,2.25-2.25h9.527c3.595,0,6.521,2.924,6.521,6.519v10.295  C82.285,72.746,79.358,75.67,75.764,75.67z"
   id="path104"
   style="fill:#3192cb;fill-opacity:1"
   inkscape:export-filename="D:\github\mariamole\src\resources\toolbar\upload.png"
   inkscape:export-xdpi="33.450001"
   inkscape:export-ydpi="33.450001" />
</svg>