<?xml version="1.0" encoding="UTF-8" standalone="no"?>
<svg
   xmlns:dc="http://purl.org/dc/elements/1.1/"
   xmlns:cc="http://creativecommons.org/ns#"
   xmlns:rdf="http://www.w3.org/1999/02/22-rdf-syntax-ns#"
   xmlns:svg="http://www.w3.org/2000/svg"
   xmlns="http://www.w3.org/2000/svg"
   xmlns:sodipodi="http://sodipodi.sourceforge.net/DTD/sodipodi-0.dtd"
   xmlns:inkscape="http://www.inkscape.org/namespaces/inkscape"
   version="1.1"
   x="0px"
   y="0px"
   width="100px"
   height="100px"
   viewBox="0 0 100 100"
   enable-background="new 0 0 100 100"
   xml:space="preserve"
   id="svg2"
   inkscape:version="0.48.4 r9939"
   sodipodi:docname="icon_8930.svg"><metadata
   id="metadata16"><rdf:RDF><cc:Work
       rdf:about=""><dc:format>image/svg+xml</dc:format><dc:type
         rdf:resource="http://purl.org/dc/dcmitype/StillImage" /><dc:title></dc:title></cc:Work></rdf:RDF></metadata><defs
   id="defs14">
	

		
		
	</defs><sodipodi:namedview
   pagecolor="#ffffff"
   bordercolor="#666666"
   borderopacity="1"
   objecttolerance="10"
   gridtolerance="10"
   guidetolerance="10"
   inkscape:pageopacity="0"
   inkscape:pageshadow="2"
   inkscape:window-width="1920"
   inkscape:window-height="1017"
   id="namedview12"
   showgrid="false"
   inkscape:zoom="4.72"
   inkscape:cx="21.574973"
   inkscape:cy="43.214989"
   inkscape:window-x="1911"
   inkscape:window-y="-9"
   inkscape:window-maximized="1"
   inkscape:current-layer="svg2" />
<g
   id="Captions">
</g>
<g
   id="g3766"
   inkscape:export-filename="C:\Users\alexi_000\Desktop\icons\upload\icon_8930.svg.png"
   inkscape:export-xdpi="22.48"
   inkscape:export-ydpi="22.48"><path
     style="fill:#3192cb;fill-opacity:1"
     inkscape:connector-curvature="0"
     id="path8"
     d="M 93.552,22.933 H 6.378 C 3.779,23.919 1.93,26.423 1.93,29.346 v 48.999 c 0,3.793 3.095,6.87 6.913,6.87 h 82.244 c 3.818,0 6.913,-3.077 6.913,-6.87 V 29.346 c 0,-2.923 -1.846,-5.427 -4.448,-6.413 z M 39.69,53.946 c -0.151,0.302 -0.554,0.604 -3.562,0.824 -1.17,0.086 -2.908,0.147 -4.88,0.176 v 13.719 c 0,2.202 -1.796,3.979 -4.013,3.979 -2.217,0 -4.005,-1.777 -4.005,-3.979 V 54.903 C 18.998,54.788 15.388,54.507 15.021,53.996 L 14.92,53.651 c 0,-1.807 10.454,-18.116 12.412,-18.152 0.32,-0.004 0.701,0.23 1.267,0.785 2.937,2.871 11.16,15.316 11.16,17.356 l -0.069,0.306 z" /><path
     style="fill:#3192cb;fill-opacity:1"
     inkscape:connector-curvature="0"
     id="path10"
     d="M 89.604,18.873 C 89.604,15.08 87.146,12 84.116,12 h -25.6 c -3.03,0 -5.492,3.08 -5.492,6.873 v 1.317 h 36.581 v -1.317 z" /></g>
</svg>