<?xml version="1.0" encoding="UTF-8" standalone="no"?>
<svg
   xmlns:dc="http://purl.org/dc/elements/1.1/"
   xmlns:cc="http://creativecommons.org/ns#"
   xmlns:rdf="http://www.w3.org/1999/02/22-rdf-syntax-ns#"
   xmlns:svg="http://www.w3.org/2000/svg"
   xmlns="http://www.w3.org/2000/svg"
   xmlns:sodipodi="http://sodipodi.sourceforge.net/DTD/sodipodi-0.dtd"
   xmlns:inkscape="http://www.inkscape.org/namespaces/inkscape"
   version="1.1"
   x="0px"
   y="0px"
   width="100px"
   height="100px"
   viewBox="0 0 100 100"
   enable-background="new 0 0 100 100"
   xml:space="preserve"
   id="svg2"
   inkscape:version="0.48.4 r9939"
   sodipodi:docname="save.svg"><metadata
   id="metadata22"><rdf:RDF><cc:Work
       rdf:about=""><dc:format>image/svg+xml</dc:format><dc:type
         rdf:resource="http://purl.org/dc/dcmitype/StillImage" /><dc:title></dc:title></cc:Work></rdf:RDF></metadata><defs
   id="defs20">
	
	
	
	
	
	
</defs><sodipodi:namedview
   pagecolor="#ffffff"
   bordercolor="#666666"
   borderopacity="1"
   objecttolerance="10"
   gridtolerance="10"
   guidetolerance="10"
   inkscape:pageopacity="0"
   inkscape:pageshadow="2"
   inkscape:window-width="1680"
   inkscape:window-height="987"
   id="namedview18"
   showgrid="false"
   inkscape:zoom="37.76"
   inkscape:cx="44.271195"
   inkscape:cy="74.045124"
   inkscape:window-x="-9"
   inkscape:window-y="-9"
   inkscape:window-maximized="1"
   inkscape:current-layer="svg2" />
<g
   id="Captions">
</g>

<rect
   style="fill:#b1d7ee;fill-opacity:1;stroke:none"
   id="rect3773-1"
   width="73.093224"
   height="84.957626"
   x="-79.155869"
   y="7.1239171" /><rect
   style="fill:#d2e8f0;fill-opacity:1;stroke:none"
   id="rect3773"
   width="5.4427404"
   height="6.3261995"
   x="31.12623"
   y="20.473085"
   inkscape:export-filename="D:\github\mariamole\src\resources\toolbar\save.png"
   inkscape:export-xdpi="22.48"
   inkscape:export-ydpi="22.48" /><rect
   style="fill:#3192cb;fill-opacity:1"
   id="rect6"
   height="0.094344616"
   width="3.9536874"
   y="24.151237"
   x="31.838923"
   inkscape:export-filename="D:\github\mariamole\src\resources\toolbar\save.png"
   inkscape:export-xdpi="22.48"
   inkscape:export-ydpi="22.48" /><rect
   style="fill:#3192cb;fill-opacity:1"
   id="rect8"
   height="0.095238179"
   width="3.9536874"
   y="24.676201"
   x="31.838923"
   inkscape:export-filename="D:\github\mariamole\src\resources\toolbar\save.png"
   inkscape:export-xdpi="22.48"
   inkscape:export-ydpi="22.48" /><rect
   style="fill:#3192cb;fill-opacity:1"
   id="rect10"
   height="1.4562728"
   width="0.70777082"
   y="20.948584"
   x="34.305286"
   inkscape:export-filename="D:\github\mariamole\src\resources\toolbar\save.png"
   inkscape:export-xdpi="22.48"
   inkscape:export-ydpi="22.48" /><rect
   style="fill:#3192cb;fill-opacity:1"
   id="rect12"
   height="0.095238179"
   width="3.9536874"
   y="25.172571"
   x="31.838923"
   inkscape:export-filename="D:\github\mariamole\src\resources\toolbar\save.png"
   inkscape:export-xdpi="22.48"
   inkscape:export-ydpi="22.48" /><path
   style="fill:#3192cb;fill-opacity:1"
   inkscape:connector-curvature="0"
   id="path14"
   d="m 36.32734,20.12672 h -5.553451 c -0.211698,0 -0.382665,0.169999 -0.382665,0.380134 v 6.056224 c 0,0.209912 0.170967,0.379613 0.382665,0.379613 h 6.280656 c 0.211401,0 0.382666,-0.169701 0.382666,-0.379613 V 21.217677 L 36.32734,20.12672 z m -4.554306,0.760937 c 0,-0.186753 0.17119,-0.338806 0.382591,-0.338806 h 3.517781 c 0.210805,0 0.382367,0.152053 0.382367,0.338806 v 1.390969 c 0,0.187051 -0.171562,0.338807 -0.382367,0.338807 H 32.15555 c -0.2114,0 -0.382591,-0.151756 -0.382591,-0.338807 v -1.390969 z m 4.675978,5.666262 h -5.069589 v -3.272574 h 5.069589 v 3.272574 z"
   inkscape:export-filename="D:\github\mariamole\src\resources\toolbar\save.png"
   inkscape:export-xdpi="22.48"
   inkscape:export-ydpi="22.48" /><rect
   style="fill:#3192cb;fill-opacity:1"
   id="rect16"
   height="0.095461562"
   width="3.9536874"
   y="25.639156"
   x="31.838923"
   inkscape:export-filename="D:\github\mariamole\src\resources\toolbar\save.png"
   inkscape:export-xdpi="22.48"
   inkscape:export-ydpi="22.48" /><rect
   style="fill:#f5a4a4;fill-opacity:1;stroke:none"
   id="rect3773-17"
   width="5.4427404"
   height="6.3261995"
   x="39.479588"
   y="20.674252"
   inkscape:export-filename="D:\github\mariamole\src\resources\toolbar\save2.png"
   inkscape:export-xdpi="306.56"
   inkscape:export-ydpi="306.56" /><rect
   style="fill:#ca5959;fill-opacity:1"
   id="rect6-4"
   height="0.094344616"
   width="3.9536874"
   y="24.32592"
   x="40.086349"
   inkscape:export-filename="D:\github\mariamole\src\resources\toolbar\save2.png"
   inkscape:export-xdpi="306.56"
   inkscape:export-ydpi="306.56" /><rect
   style="fill:#ca5959;fill-opacity:1"
   id="rect8-0"
   height="0.095238179"
   width="3.9536874"
   y="24.850883"
   x="40.086349"
   inkscape:export-filename="D:\github\mariamole\src\resources\toolbar\save2.png"
   inkscape:export-xdpi="306.56"
   inkscape:export-ydpi="306.56" /><rect
   style="fill:#ca5959;fill-opacity:1"
   id="rect10-9"
   height="1.4562728"
   width="0.70777082"
   y="21.123266"
   x="42.552711"
   inkscape:export-filename="D:\github\mariamole\src\resources\toolbar\save2.png"
   inkscape:export-xdpi="306.56"
   inkscape:export-ydpi="306.56" /><rect
   style="fill:#ca5959;fill-opacity:1"
   id="rect12-4"
   height="0.095238179"
   width="3.9536874"
   y="25.347254"
   x="40.086349"
   inkscape:export-filename="D:\github\mariamole\src\resources\toolbar\save2.png"
   inkscape:export-xdpi="306.56"
   inkscape:export-ydpi="306.56" /><path
   style="fill:#ca5959;fill-opacity:1"
   inkscape:connector-curvature="0"
   id="path14-8"
   d="m 44.574765,20.301403 h -5.55345 c -0.211698,0 -0.382665,0.169999 -0.382665,0.380133 v 6.056224 c 0,0.209912 0.170967,0.379613 0.382665,0.379613 h 6.280656 c 0.2114,0 0.382665,-0.169701 0.382665,-0.379613 v -5.3454 l -1.109871,-1.090957 z m -4.554306,0.760937 c 0,-0.186753 0.171191,-0.338807 0.382591,-0.338807 h 3.517781 c 0.210805,0 0.382368,0.152054 0.382368,0.338807 v 1.390969 c 0,0.187051 -0.171563,0.338806 -0.382368,0.338806 h -3.517855 c -0.211401,0 -0.382591,-0.151755 -0.382591,-0.338806 V 21.06234 z m 4.675979,5.666261 h -5.06959 v -3.272574 h 5.06959 v 3.272574 z"
   inkscape:export-filename="D:\github\mariamole\src\resources\toolbar\save2.png"
   inkscape:export-xdpi="306.56"
   inkscape:export-ydpi="306.56" /><rect
   style="fill:#ca5959;fill-opacity:1"
   id="rect16-8"
   height="0.095461562"
   width="3.9536874"
   y="25.813839"
   x="40.086349"
   inkscape:export-filename="D:\github\mariamole\src\resources\toolbar\save2.png"
   inkscape:export-xdpi="306.56"
   inkscape:export-ydpi="306.56" /></svg>